<svg width="33" height="36" viewBox="0 0 33 36" fill="none" xmlns="http://www.w3.org/2000/svg">
    <path fill-rule="evenodd" clip-rule="evenodd" d="M2.82145 0.744141H31.1066C32.1473 0.744141 32.9999 1.59648 32.9999 2.63745V23.639C32.9999 24.6112 32.2571 25.4182 31.3117 25.5212L30.1145 22.5371C30.4637 21.7013 30.6565 20.7846 30.6565 19.8237C30.6565 15.9329 27.5019 12.7783 23.6111 12.7783C19.7204 12.7783 16.5657 15.933 16.5657 19.8237C16.5657 20.7858 16.7585 21.7026 17.1078 22.5371L15.9072 25.5323H2.82202C1.78131 25.5323 0.928711 24.68 0.928711 23.639V2.63745C0.928711 1.59542 1.78104 0.744141 2.82202 0.744141H2.82145ZM29.0394 24.3169L32.7539 33.5813L29.3221 32.7531L27.7247 35.2382L24.5811 26.8026C26.369 26.5565 27.942 25.641 29.0393 24.3162L29.0394 24.3169ZM23.6123 14.439C26.5863 14.439 28.9971 16.8499 28.9971 19.8239C28.9971 22.7979 26.5863 25.2087 23.6123 25.2087C20.6383 25.2087 18.2274 22.7979 18.2274 19.8239C18.2274 16.8499 20.6383 14.439 23.6123 14.439ZM18.1851 24.3169L14.4706 33.5813L17.9024 32.7531L19.4998 35.2382L22.6435 26.8026C20.8555 26.5565 19.2826 25.641 18.1852 24.3162L18.1851 24.3169ZM4.71588 6.5999C4.25685 6.5999 3.88571 6.2285 3.88571 5.76973C3.88571 5.31071 4.25711 4.93957 4.71588 4.93957H29.2144C29.6734 4.93957 30.0446 5.31097 30.0446 5.76973C30.0446 6.22876 29.6732 6.5999 29.2144 6.5999H4.71588ZM4.71588 21.8671C4.25685 21.8671 3.88571 21.4957 3.88571 21.0369C3.88571 20.5779 4.25711 20.2068 4.71588 20.2068H11.5495C12.0085 20.2068 12.3796 20.5782 12.3796 21.0369C12.3796 21.496 12.0082 21.8671 11.5495 21.8671H4.71588ZM4.71588 16.7781C4.25685 16.7781 3.88571 16.4067 3.88571 15.9479C3.88571 15.4889 4.25711 15.1178 4.71588 15.1178H11.5495C12.0085 15.1178 12.3796 15.4892 12.3796 15.9479C12.3796 16.407 12.0082 16.7781 11.5495 16.7781H4.71588ZM4.71588 11.6891C4.25685 11.6891 3.88571 11.3177 3.88571 10.8589C3.88571 10.3999 4.25711 10.0288 4.71588 10.0288H29.2144C29.6734 10.0288 30.0446 10.4002 30.0446 10.8589C30.0446 11.318 29.6732 11.6891 29.2144 11.6891H4.71588Z" fill="url(#paint0_linear_889_135)"/>
    <defs>
    <linearGradient id="paint0_linear_889_135" x1="21.4368" y1="0.744141" x2="22.9095" y2="31.6009" gradientUnits="userSpaceOnUse">
    <stop offset="0.638281" stop-color="white"/>
    <stop offset="0.991659" stop-color="#AFAFAF"/>
    </linearGradient>
    </defs>
</svg>
