<svg width="40" height="40" viewBox="0 0 40 40" fill="none" xmlns="http://www.w3.org/2000/svg">
<g clip-path="url(#clip0_889_3762)">
<path d="M5.24092 21.2593C7.79548 18.7048 11.4455 17.9085 14.6824 18.8663L28.3088 5.23999L34.3958 4.9195L33.4349 12.9289L29.5902 12.9289L29.5902 16.7737L25.7454 16.7737L25.7454 20.6185L21.0899 25.2739C22.048 28.5106 21.2518 32.1606 18.6969 34.7155C14.9812 38.4312 8.95679 38.4312 5.2411 34.7155C1.52535 30.9997 1.5254 24.9753 5.2411 21.2596L5.24092 21.2593ZM7.804 28.3076C6.74223 29.3693 6.74224 31.0906 7.804 32.1523C8.86577 33.2141 10.587 33.2141 11.6488 32.1523C12.7105 31.0906 12.7105 29.3693 11.6488 28.3076C10.587 27.2458 8.86577 27.2458 7.804 28.3076Z" fill="url(#paint0_linear_889_3762)"/>
</g>
<defs>
<linearGradient id="paint0_linear_889_3762" x1="17.3611" y1="9.13912" x2="29.665" y2="20.9544" gradientUnits="userSpaceOnUse">
<stop offset="0.638281" stop-color="white"/>
<stop offset="0.991659" stop-color="#AFAFAF"/>
</linearGradient>
<clipPath id="clip0_889_3762">
<rect width="40" height="40" fill="white"/>
</clipPath>
</defs>
</svg>
