<svg width="36" height="36" viewBox="0 0 36 36" fill="none" xmlns="http://www.w3.org/2000/svg">
<path fill-rule="evenodd" clip-rule="evenodd" d="M18 36C27.9411 36 36 27.9411 36 18C36 8.05887 27.9411 0 18 0C8.05887 0 0 8.05887 0 18C0 27.9411 8.05887 36 18 36ZM25.4763 21.4142C25.7237 21.3387 25.9795 21.2857 26.2503 21.2857H26.25C27.7694 21.2857 29 22.5643 29 24.1429C29 25.7215 27.7694 27 26.25 27C24.9698 27 23.9042 26.0872 23.5962 24.8572H12.4024C12.0958 26.0872 11.0302 27 9.75001 27C8.23059 27 7 25.7215 7 24.1429C7 22.5643 8.23059 21.2857 9.75001 21.2857C10.0209 21.2857 10.2767 21.3387 10.5241 21.4142L16.0422 11.86C15.5526 11.3442 15.2502 10.6386 15.2502 9.85713C15.2502 8.27853 16.4808 7 18.0002 7C19.5196 7 20.7502 8.27853 20.7502 9.85713C20.7502 10.6385 20.4477 11.3442 19.9582 11.86L25.4763 21.4142ZM17.2264 12.5858L11.7083 22.14H11.7084C12.0425 22.4914 12.2804 22.9358 12.4028 23.4286H23.5978C23.7202 22.9358 23.9595 22.4914 24.2922 22.14L18.7745 12.5858C18.5271 12.6613 18.2712 12.7143 18.0004 12.7143C17.7296 12.7143 17.4737 12.6613 17.2264 12.5858Z" fill="#D9D9D9"/>
</svg>
