<svg width="40" height="40" viewBox="0 0 40 40" fill="none" xmlns="http://www.w3.org/2000/svg">
<path d="M32.1885 3.60107C29.5423 3.60107 27.3774 5.76595 27.3774 8.41215C27.3774 11.0583 29.5423 13.2232 32.1885 13.2232C34.8347 13.2232 36.9996 11.0583 36.9996 8.41215C36.9996 5.76595 34.8344 3.60107 32.1885 3.60107ZM32.1885 10.0158C31.3065 10.0158 30.5849 9.29426 30.5849 8.41222C30.5849 7.53018 31.3065 6.80865 32.1885 6.80865C33.0706 6.80865 33.7921 7.53018 33.7921 8.41222C33.7921 9.29426 33.0706 10.0158 32.1885 10.0158Z" fill="url(#paint0_linear_889_1336)"/>
<path d="M32.1908 15.6289C31.429 15.6289 30.6672 15.8294 30.026 16.1502L24.1723 10.2965C24.4128 9.69523 24.5733 9.09365 24.5733 8.41215C24.5733 5.76595 22.4084 3.60107 19.7622 3.60107C17.116 3.60107 14.9512 5.76595 14.9512 8.41215C14.9512 11.0583 17.116 13.2232 19.7622 13.2232C20.564 13.2232 21.3259 13.0227 22.0074 12.6619L27.8208 18.4753C27.54 19.0769 27.3795 19.7184 27.3795 20.44C27.3795 23.0862 29.5443 25.251 32.1905 25.251C34.8367 25.251 37.0016 23.0862 37.0016 20.44C37.0019 17.7938 34.8367 15.6289 32.1908 15.6289L32.1908 15.6289ZM18.1583 8.4122C18.1583 7.53016 18.8799 6.80863 19.7619 6.80863C20.644 6.80863 21.3655 7.53016 21.3655 8.4122C21.3655 9.29425 20.644 10.0158 19.7619 10.0158C18.8799 10.0158 18.1583 9.29425 18.1583 8.4122ZM32.1908 22.0438C31.3088 22.0438 30.5873 21.3223 30.5873 20.4402C30.5873 19.5582 31.3088 18.8366 32.1908 18.8366C33.0729 18.8366 33.7944 19.5582 33.7944 20.4402C33.7944 21.3223 33.0729 22.0438 32.1908 22.0438Z" fill="url(#paint1_linear_889_1336)"/>
<path d="M24.5733 20.4395C24.5733 17.7933 22.4084 15.6284 19.7622 15.6284C17.116 15.6284 14.9512 17.7933 14.9512 20.4395C14.9512 23.0857 17.116 25.2506 19.7622 25.2506C22.4084 25.2506 24.5733 23.0857 24.5733 20.4395ZM18.1586 20.4395C18.1586 19.5574 18.8801 18.8359 19.7622 18.8359C20.6442 18.8359 21.3657 19.5574 21.3657 20.4395C21.3657 21.3215 20.6442 22.0431 19.7622 22.0431C18.8801 22.0431 18.1586 21.3215 18.1586 20.4395Z" fill="url(#paint2_linear_889_1336)"/>
<path d="M7.33109 37.2803C9.97729 37.2803 12.1422 35.1155 12.1422 32.4693C12.1422 29.8231 9.97729 27.6582 7.33109 27.6582C4.68518 27.6582 2.52002 29.8231 2.52002 32.4693C2.52002 35.1155 4.68518 37.2803 7.33109 37.2803ZM7.33109 30.8656C8.21314 30.8656 8.93466 31.5872 8.93466 32.4692C8.93466 33.3512 8.21314 34.0728 7.33109 34.0728C6.44905 34.0728 5.72752 33.3512 5.72752 32.4692C5.72752 31.5872 6.44905 30.8656 7.33109 30.8656Z" fill="url(#paint3_linear_889_1336)"/>
<path d="M32.1889 27.6569C30.104 27.6569 28.3398 28.98 27.6583 30.8644H24.2906C23.6091 28.9801 21.8449 27.6569 19.76 27.6569C18.5572 27.6569 17.4746 28.098 16.6728 28.7795L11.1802 23.3269C11.7814 22.5251 12.1425 21.5228 12.1425 20.4402C12.1425 18.3553 10.8194 16.5912 8.93495 15.9097V12.9427C10.8193 12.2612 12.1425 10.497 12.1425 8.41215C12.1425 5.76595 9.97758 3.60107 7.33138 3.60107C4.68518 3.60135 2.52002 5.76623 2.52002 8.41243C2.52002 10.4973 3.84308 12.2615 5.72752 12.943V15.9099C3.84316 16.5915 2.52002 18.3556 2.52002 20.4405C2.52002 23.0867 4.68489 25.2516 7.33109 25.2516C7.73214 25.2516 8.09293 25.2116 8.45369 25.1313L15.0289 31.7066C14.9889 31.9468 14.9489 32.1873 14.9489 32.4681C14.9489 35.1143 17.1138 37.2792 19.76 37.2792C21.8449 37.2792 23.6091 35.9561 24.2906 34.0717H27.6583C28.3399 35.956 30.104 37.2792 32.1889 37.2792C34.8351 37.2792 37 35.1143 37 32.4681C37 29.8219 34.8348 27.657 32.1889 27.657L32.1889 27.6569ZM7.33131 6.80865C8.21335 6.80865 8.93488 7.53018 8.93488 8.41222C8.93488 9.29426 8.21335 10.0158 7.33131 10.0158C6.44926 10.0158 5.72774 9.29426 5.72774 8.41222C5.72774 7.53018 6.44926 6.80865 7.33131 6.80865ZM5.72774 20.4402C5.72774 19.5582 6.44926 18.8367 7.33131 18.8367C8.21335 18.8367 8.93488 19.5582 8.93488 20.4402C8.93488 21.3223 8.21335 22.0438 7.33131 22.0438C6.44926 22.0438 5.72774 21.3223 5.72774 20.4402ZM19.7602 34.0718C18.8782 34.0718 18.1567 33.3503 18.1567 32.4682C18.1567 31.5862 18.8782 30.8647 19.7602 30.8647C20.6423 30.8647 21.3638 31.5862 21.3638 32.4682C21.3638 33.3503 20.6423 34.0718 19.7602 34.0718ZM32.189 34.0718C31.307 34.0718 30.5855 33.3503 30.5855 32.4682C30.5855 31.5862 31.307 30.8647 32.189 30.8647C33.0711 30.8647 33.7926 31.5862 33.7926 32.4682C33.7926 33.3503 33.0711 34.0718 32.189 34.0718Z" fill="url(#paint4_linear_889_1336)"/>
<defs>
<linearGradient id="paint0_linear_889_1336" x1="33.5304" y1="3.60107" x2="33.9124" y2="12.2112" gradientUnits="userSpaceOnUse">
<stop offset="0.638281" stop-color="white"/>
<stop offset="0.991659" stop-color="#AFAFAF"/>
</linearGradient>
<linearGradient id="paint1_linear_889_1336" x1="29.0514" y1="3.60107" x2="29.8955" y2="22.9754" gradientUnits="userSpaceOnUse">
<stop offset="0.638281" stop-color="white"/>
<stop offset="0.991659" stop-color="#AFAFAF"/>
</linearGradient>
<linearGradient id="paint2_linear_889_1336" x1="21.1041" y1="15.6284" x2="21.4862" y2="24.2386" gradientUnits="userSpaceOnUse">
<stop offset="0.638281" stop-color="white"/>
<stop offset="0.991659" stop-color="#AFAFAF"/>
</linearGradient>
<linearGradient id="paint3_linear_889_1336" x1="8.67296" y1="27.6582" x2="9.05501" y2="36.2684" gradientUnits="userSpaceOnUse">
<stop offset="0.638281" stop-color="white"/>
<stop offset="0.991659" stop-color="#AFAFAF"/>
</linearGradient>
<linearGradient id="paint4_linear_889_1336" x1="24.5684" y1="3.60107" x2="25.8747" y2="33.7399" gradientUnits="userSpaceOnUse">
<stop offset="0.638281" stop-color="white"/>
<stop offset="0.991659" stop-color="#AFAFAF"/>
</linearGradient>
</defs>
</svg>
