<svg width="1440" height="450" viewBox="0 0 1440 450" fill="none" xmlns="http://www.w3.org/2000/svg">
<g opacity="0.3">
<path d="M16.3245 -155.117C114.836 -184.788 198.133 -196.915 286.845 -138.863C327.075 -112.288 361.115 -73.3292 409.598 -61.9768C474.069 -47.0124 545.76 -88.8096 599.658 -118.222C629.315 -134.477 660.003 -164.922 692.238 -175.758C716.479 -184.014 736.594 -176.532 759.804 -167.502C823.759 -142.991 877.399 -112.288 946.512 -103.516C1091.96 -85.1975 1320.44 -99.3879 1394.46 -248C1463.31 -177.822 1501.74 -55.0106 1423.86 25.7456C1384.91 66.2527 1249.27 78.121 1281.5 155.781C1292.59 182.356 1319.41 200.674 1331.53 226.733C1345.72 256.92 1340.04 286.849 1336.17 318.842C1321.22 436.493 1363.25 523.699 1427.98 622C1346.23 598.005 1294.14 555.176 1223.22 513.637C1169.07 481.902 1123.68 486.804 1067.72 513.637C1001.7 545.114 947.286 620.968 869.92 620.71C807.255 620.452 744.847 587.427 688.886 563.174C632.667 539.18 559.686 500.221 495.731 512.605C436.933 523.957 402.119 582.783 344.095 601.36C223.147 640.577 93.9476 564.981 -27 558.014C-25.4527 486.03 0.0778141 443.201 45.9812 389.794C111.226 313.94 211.801 226.475 100.653 143.397C54.2334 108.824 -64.3932 70.8968 -12.0427 -5.73129C1.36723 -25.0818 27.6714 -32.564 42.1129 -50.3665C75.3799 -92.6797 47.0127 -117.964 16.3245 -155.117Z" stroke="#8CC1FC" stroke-width="0.45" stroke-miterlimit="10" stroke-linecap="round" stroke-linejoin="round"/>
<path d="M-26.2266 524.731C85.6951 534.278 206.643 582.009 315.728 535.31C370.399 512.089 402.119 472.098 464.784 469.26C530.545 466.164 595.789 491.964 657.166 512.347C712.095 530.665 770.893 554.144 829.948 553.112C910.15 551.564 957.859 484.998 1027.23 453.779C1082.42 428.753 1125.23 434.687 1177.06 463.068C1245.91 500.995 1297.49 531.181 1378.47 543.308" stroke="#8CC1FC" stroke-width="0.45" stroke-miterlimit="10" stroke-linecap="round" stroke-linejoin="round"/>
<path d="M-22.3582 497.125C86.211 509.509 194.006 528.343 298.965 487.32C355.184 465.39 394.382 437.009 456.79 438.557C523.066 440.105 587.279 460.488 650.719 477.516C704.617 491.964 761.093 507.703 817.57 503.317C888.488 497.641 930.007 445.523 992.415 417.4C1045.28 393.406 1088.86 400.114 1139.41 424.625C1212.39 459.972 1265.26 478.29 1348.55 478.032" stroke="#8CC1FC" stroke-width="0.45" stroke-miterlimit="10" stroke-linecap="round" stroke-linejoin="round"/>
<path d="M-13.5898 471.84C102.458 488.868 199.68 482.676 310.312 444.491C369.884 423.851 413.466 410.692 476.905 417.658C539.829 424.367 601.205 440.363 663.098 453.005C713.127 463.068 764.962 472.098 816.281 465.39C881.01 456.876 919.95 411.466 978.49 388.504C1029.55 368.379 1069.78 379.215 1118.26 399.34C1194.08 430.817 1251.85 436.235 1334.11 423.851" stroke="#8CC1FC" stroke-width="0.45" stroke-miterlimit="10" stroke-linecap="round" stroke-linejoin="round"/>
<path d="M1.62524 445.265C69.9645 457.907 135.983 464.358 204.322 447.587C248.678 436.493 290.713 417.658 334.811 405.274C454.985 371.475 568.196 417.916 688.37 431.849C734.274 437.267 780.693 439.073 826.338 430.043C883.073 418.948 922.013 379.989 975.653 362.445C1024.39 346.706 1062.82 362.703 1108.46 378.957C1187.38 407.338 1250.82 399.598 1331.02 377.151" stroke="#8CC1FC" stroke-width="0.45" stroke-miterlimit="10" stroke-linecap="round" stroke-linejoin="round"/>
<path d="M25.3506 414.046C97.0423 430.301 162.287 438.557 232.689 414.562C279.108 398.566 321.401 374.313 370.399 365.283C486.963 343.352 601.979 409.144 720.09 409.402C761.609 409.402 802.355 403.726 842.069 392.116C892.356 377.667 936.197 341.03 987.258 332.516C1032.39 325.034 1067.72 348.254 1108.98 361.671C1188.15 387.472 1257.78 366.831 1334.11 337.418" stroke="#8CC1FC" stroke-width="0.45" stroke-miterlimit="10" stroke-linecap="round" stroke-linejoin="round"/>
<path d="M59.1333 374.571C130.051 394.18 194.264 407.08 263.635 376.377C305.412 357.801 341.774 330.71 388.451 324.26C460.401 314.456 524.356 350.319 592.179 367.605C644.272 380.763 698.685 387.214 752.067 378.183C794.876 371.217 834.332 353.931 874.047 337.16C913.245 320.648 960.438 289.945 1004.54 293.041C1040.9 295.621 1071.07 320.906 1103.82 334.58C1186.09 368.895 1262.94 335.87 1339.27 299.749" stroke="#8CC1FC" stroke-width="0.45" stroke-miterlimit="10" stroke-linecap="round" stroke-linejoin="round"/>
<path d="M105.037 323.486C170.539 346.19 233.205 366.573 296.387 328.13C330.943 306.973 356.989 278.077 400.056 275.755C472.521 271.626 541.376 324.002 611.005 339.998C666.966 352.899 723.7 353.415 777.856 333.29C847.485 307.231 942.386 204.029 1021.04 236.537C1054.05 250.212 1077 283.237 1107.95 300.523C1186.86 344.642 1269.64 301.039 1341.59 263.112" stroke="#8CC1FC" stroke-width="0.45" stroke-miterlimit="10" stroke-linecap="round" stroke-linejoin="round"/>
<path d="M149.393 254.598C205.611 272.142 259.251 288.913 316.243 267.24C346.932 255.372 369.11 238.859 403.408 240.666C469.684 244.278 534.929 283.753 600.947 295.363C658.198 305.425 715.19 307.489 771.151 290.719C844.39 269.046 943.933 169.714 1021.04 191.386C1054.05 200.674 1079.06 231.635 1108.72 247.374C1185.31 287.623 1257.78 261.048 1332.56 228.281" stroke="#8CC1FC" stroke-width="0.45" stroke-miterlimit="10" stroke-linecap="round" stroke-linejoin="round"/>
<path d="M150.424 201.707C201.743 213.575 252.288 224.669 304.897 217.961C336.101 213.833 362.147 207.383 393.867 212.285C513.783 230.603 622.352 285.817 747.425 262.08C789.461 254.082 828.401 236.538 866.568 217.961C902.414 200.417 945.996 166.36 987.258 165.328C1026.97 164.296 1063.08 195.256 1098.15 209.705C1172.68 240.408 1238.44 224.153 1312.45 197.32" stroke="#8CC1FC" stroke-width="0.45" stroke-miterlimit="10" stroke-linecap="round" stroke-linejoin="round"/>
<path d="M121.799 160.683C204.064 170.23 289.166 170.23 370.399 187.258C482.321 210.737 597.853 247.89 713.643 241.44C754.389 239.118 791.782 228.281 829.175 212.285C869.663 194.74 909.119 160.167 952.186 152.685C992.416 145.719 1031.36 164.554 1069.26 175.39C1147.4 198.094 1211.36 191.644 1290.27 168.682" stroke="#8CC1FC" stroke-width="0.45" stroke-miterlimit="10" stroke-linecap="round" stroke-linejoin="round"/>
<path d="M76.6694 127.659C279.882 125.336 475.1 202.997 676.765 224.669C713.901 228.539 748.199 225.443 783.271 212.543C829.175 195.772 863.731 158.619 909.119 143.397C953.991 128.175 999.894 138.237 1045.28 145.719C1126.26 159.135 1194.6 159.651 1275.83 142.107" stroke="#8CC1FC" stroke-width="0.45" stroke-miterlimit="10" stroke-linecap="round" stroke-linejoin="round"/>
<path d="M27.9292 98.2456C92.9159 89.2154 152.229 87.1514 215.153 107.792C257.446 121.724 297.418 142.365 341 152.427C395.156 164.811 451.89 160.167 506.562 169.456C553.754 177.196 597.595 193.708 643.498 206.093C675.218 214.607 704.359 219.251 736.594 210.221C789.976 195.256 823.243 150.621 873.015 128.949C920.723 108.05 973.589 108.824 1024.39 112.694C1111.04 119.402 1191.76 126.368 1278.92 115.274" stroke="#8CC1FC" stroke-width="0.45" stroke-miterlimit="10" stroke-linecap="round" stroke-linejoin="round"/>
<path d="M-11.011 68.8327C61.9702 49.2242 124.12 48.9662 194.265 78.379C235.01 95.6655 272.661 120.692 315.986 132.561C376.846 149.331 438.223 132.044 500.115 141.075C543.44 147.525 581.348 164.295 621.321 180.808C725.506 223.121 765.993 144.945 854.963 102.89C991.9 38.1299 1163.91 89.2153 1309.35 87.1513" stroke="#8CC1FC" stroke-width="0.45" stroke-miterlimit="10" stroke-linecap="round" stroke-linejoin="round"/>
<path d="M-27 35.0338C43.6602 6.91102 101.426 3.29892 170.539 37.8719C219.021 62.1245 262.862 99.7936 315.212 115.79C374.267 133.851 424.297 108.05 483.352 107.792C533.124 107.534 572.064 124.82 616.936 143.655C649.43 157.329 675.476 168.423 710.806 156.555C768.056 137.463 809.833 80.7011 865.536 55.6744C1024.39 -15.5356 1212.13 35.8078 1376.4 56.7064" stroke="#8CC1FC" stroke-width="0.45" stroke-miterlimit="10" stroke-linecap="round" stroke-linejoin="round"/>
<path d="M-18.4897 3.29919C59.907 -26.3716 120.51 -27.6617 195.296 13.6195C240.941 38.9042 282.461 75.2832 333.522 89.7316C395.672 107.276 452.148 74.7671 514.298 72.7031C554.013 71.4131 589.085 80.1853 626.22 92.5696C726.279 125.595 778.629 59.0287 872.241 30.1319C1046.57 -24.0496 1239.73 21.8757 1417.15 32.454" stroke="#8CC1FC" stroke-width="0.45" stroke-miterlimit="10" stroke-linecap="round" stroke-linejoin="round"/>
<path d="M2.14087 -19.9217C82.8585 -48.5605 145.524 -51.1406 220.569 -6.24734C264.667 20.0694 303.865 58.2545 354.152 72.9609C416.56 91.5374 472.521 56.7064 533.64 47.4181C569.228 42 601.721 43.806 636.793 49.9982C728.6 65.9946 791.524 21.8754 881.009 4.33095C1066.43 -32.0481 1258.55 3.55693 1445.78 -4.9573" stroke="#8CC1FC" stroke-width="0.45" stroke-miterlimit="10" stroke-linecap="round" stroke-linejoin="round"/>
<path d="M27.4136 -39.0141C110.194 -66.6209 174.923 -70.491 250.225 -21.7276C292.518 5.62111 329.396 45.6122 378.651 60.8346C466.848 88.1834 557.365 11.5553 648.656 12.0713C731.437 12.5873 804.676 -9.60131 887.199 -19.1476C1078.55 -41.5942 1272.74 -16.0515 1462.8 -51.6565" stroke="#8CC1FC" stroke-width="0.45" stroke-miterlimit="10" stroke-linecap="round" stroke-linejoin="round"/>
<path d="M49.0757 -57.5906C128.246 -82.3592 196.327 -91.1315 268.793 -43.9162C311.344 -16.0514 346.932 28.5838 395.93 45.8703C489.026 78.8952 572.064 -8.56923 660.776 -25.0817C737.368 -39.5301 825.048 -37.208 902.414 -41.5941C1089.38 -51.9144 1288.72 -36.434 1466.66 -103.258" stroke="#8CC1FC" stroke-width="0.45" stroke-miterlimit="10" stroke-linecap="round" stroke-linejoin="round"/>
<path d="M59.6492 -80.5532C141.141 -105.064 213.09 -115.9 287.103 -66.1048C328.88 -37.9821 363.436 7.94323 412.177 24.9717C510.688 59.2867 587.28 -36.692 672.639 -66.1048C694.302 -73.587 712.869 -72.039 735.563 -69.9749C794.103 -64.8148 850.579 -62.2347 909.635 -62.2347C1088.09 -62.7507 1301.36 -56.3005 1457.12 -155.633" stroke="#8CC1FC" stroke-width="0.45" stroke-miterlimit="10" stroke-linecap="round" stroke-linejoin="round"/>
<path d="M51.1387 -111.772C141.398 -138.605 217.99 -149.699 298.707 -92.9376C338.937 -64.5568 372.978 -21.9857 421.976 -8.31129C525.903 20.8435 598.111 -79.7792 683.212 -115.126C704.875 -124.156 722.926 -120.286 745.362 -115.126C801.323 -102.484 853.416 -87.5195 911.182 -83.6493C1078.29 -72.813 1310.64 -74.8771 1433.4 -205.429" stroke="#8CC1FC" stroke-width="0.45" stroke-miterlimit="10" stroke-linecap="round" stroke-linejoin="round"/>
<path d="M1375.37 -211.879C1432.88 -144.281 1445.26 -39.5302 1370.73 22.9076C1322.25 63.6727 1198.98 81.9912 1230.44 168.682C1241.79 200.158 1268.09 224.153 1276.86 257.178C1284.34 285.817 1278.41 315.746 1275.57 344.9C1264.48 449.393 1315.29 523.699 1375.89 606.262" stroke="#8CC1FC" stroke-width="0.45" stroke-miterlimit="10" stroke-linecap="round" stroke-linejoin="round"/>
<path d="M1344.94 -181.176C1391.36 -115.384 1383.88 -30.2419 1316.58 19.8115C1261.9 60.5766 1149.47 82.7652 1184.28 174.358C1194.6 201.19 1214.45 223.637 1222.96 251.502C1233.02 284.785 1228.38 316.004 1225.28 349.803C1216.77 448.361 1271.45 511.057 1331.79 585.621" stroke="#8CC1FC" stroke-width="0.45" stroke-miterlimit="10" stroke-linecap="round" stroke-linejoin="round"/>
<path d="M1305.23 -155.375C1350.1 -93.4538 1309.87 -18.3737 1254.94 18.7793C1195.63 58.7704 1108.21 83.7971 1142.25 174.616C1154.88 208.414 1180.67 233.957 1186.86 271.368C1190.99 297.685 1185.57 324.518 1182.99 350.834C1174.74 441.653 1238.18 498.672 1295.17 563.432" stroke="#8CC1FC" stroke-width="0.45" stroke-miterlimit="10" stroke-linecap="round" stroke-linejoin="round"/>
<path d="M1258.29 -134.735C1284.08 -82.3594 1253.65 -23.5338 1209.81 7.16905C1168.03 36.0659 1118 42.774 1096.6 98.2456C1086.28 125.336 1092.99 145.203 1104.59 170.746C1118.78 202.222 1142.76 224.927 1149.98 260.016C1156.95 292.783 1147.4 324.26 1146.11 357.285C1142.76 434.687 1214.71 489.126 1263.45 540.986" stroke="#8CC1FC" stroke-width="0.45" stroke-miterlimit="10" stroke-linecap="round" stroke-linejoin="round"/>
<path d="M1206.2 -118.996C1237.15 19.8115 984.163 29.3577 1070.81 164.037C1089.9 193.708 1115.43 216.671 1122.65 253.05C1128.84 284.269 1118.52 313.94 1116.2 344.642C1110.53 420.497 1186.34 470.55 1234.31 520.087" stroke="#8CC1FC" stroke-width="0.45" stroke-miterlimit="10" stroke-linecap="round" stroke-linejoin="round"/>
<path d="M1150.5 -107.902C1146.37 -54.2366 1126.26 -24.5658 1085.25 7.16907C1030.07 49.9983 983.647 92.8274 1038.58 156.297C1058.18 178.744 1083.19 198.094 1093.76 227.249C1107.43 265.176 1090.67 300.007 1088.86 337.676C1085.51 409.402 1160.04 456.101 1205.94 503.059" stroke="#8CC1FC" stroke-width="0.45" stroke-miterlimit="10" stroke-linecap="round" stroke-linejoin="round"/>
<path d="M1092.99 -101.194C1075.45 -55.5266 1066.17 -26.3718 1030.07 7.16913C977.973 55.1585 947.285 97.4716 1009.18 149.331C1031.36 168.166 1059.21 184.162 1071.07 212.285C1087.57 250.728 1067.72 287.365 1064.62 325.808C1058.69 398.824 1129.87 442.943 1176.54 492.222" stroke="#8CC1FC" stroke-width="0.45" stroke-miterlimit="10" stroke-linecap="round" stroke-linejoin="round"/>
<path d="M1036.26 -98.8718C1013.05 -64.2989 1008.4 -24.5658 979.263 6.91107C927.171 63.1566 911.182 101.084 981.584 144.687C1012.27 163.521 1048.38 176.938 1056.89 216.671C1064.36 251.76 1043.22 288.655 1039.87 322.712C1032.65 392.89 1101.24 440.879 1144.31 489.642" stroke="#8CC1FC" stroke-width="0.45" stroke-miterlimit="10" stroke-linecap="round" stroke-linejoin="round"/>
<path d="M981.326 -100.678C952.443 -67.9108 945.223 -19.6635 923.56 17.7475C886.425 82.2493 879.462 115.532 954.249 143.655C979.263 152.943 1014.85 161.715 1029.81 186.742C1051.99 223.637 1026.2 271.626 1017.17 308.521C997.315 390.826 1056.37 433.655 1106.4 496.609" stroke="#8CC1FC" stroke-width="0.45" stroke-miterlimit="10" stroke-linecap="round" stroke-linejoin="round"/>
<path d="M930.781 -106.096C893.646 -68.9429 890.293 -16.3095 872.757 30.6478C863.473 55.9325 836.138 86.3774 852.9 114.758C867.084 138.753 903.445 143.397 927.428 148.557C952.185 153.717 992.415 157.071 1008.92 180.55C1034.45 216.413 1001.7 272.401 991.126 308.264C964.048 398.824 1009.18 439.331 1061.53 516.475" stroke="#8CC1FC" stroke-width="0.45" stroke-miterlimit="10" stroke-linecap="round" stroke-linejoin="round"/>
<path d="M886.167 -115.384C843.874 -66.8789 841.037 -23.7917 827.627 36.0659C820.406 68.3168 793.586 110.63 819.375 140.559C836.137 159.909 878.43 158.103 900.35 159.651C929.233 161.715 971.011 158.877 988.805 186.226C1011.76 221.315 973.332 282.205 960.695 316.262C951.411 341.546 938.517 369.669 938.775 397.534C939.291 449.651 983.647 507.187 1007.37 549.5" stroke="#8CC1FC" stroke-width="0.45" stroke-miterlimit="10" stroke-linecap="round" stroke-linejoin="round"/>
<path d="M849.547 -128.027C792.813 -63.5248 792.039 -8.82732 779.661 71.6709C776.05 94.6335 757.483 136.173 772.698 158.619C793.071 188.806 842.584 181.066 872.757 179.776C898.545 178.744 951.411 168.424 967.916 197.062C982.357 222.089 942.128 295.105 934.649 313.165C918.402 351.867 893.645 393.922 891.067 436.751C887.972 492.222 921.239 550.016 942.128 598.779" stroke="#8CC1FC" stroke-width="0.45" stroke-miterlimit="10" stroke-linecap="round" stroke-linejoin="round"/>
<path d="M802.355 -149.441C757.483 -69.459 754.646 2.009 745.362 90.7634C743.042 113.21 725.505 158.361 740.978 179.776C761.093 207.641 809.06 199.384 837.427 198.094C862.184 197.062 914.019 187.258 930.265 214.349C944.965 238.602 908.603 308.263 901.382 326.324C885.393 365.799 859.863 408.112 856.253 451.199C851.353 509.251 885.136 566.271 908.345 616.582" stroke="#8CC1FC" stroke-width="0.45" stroke-miterlimit="10" stroke-linecap="round" stroke-linejoin="round"/>
<path d="M767.025 -164.922C731.952 -75.9092 724.99 7.6851 716.737 101.6C714.674 124.046 698.428 170.746 713.901 192.16C733.242 218.993 778.887 212.543 806.739 212.543C831.754 212.543 881.009 205.319 896.998 232.409C911.955 257.436 879.204 320.132 871.21 339.482C854.963 377.667 826.854 417.916 820.922 459.714C812.67 517.765 845.937 571.689 870.436 621.484" stroke="#8CC1FC" stroke-width="0.45" stroke-miterlimit="10" stroke-linecap="round" stroke-linejoin="round"/>
<path d="M740.978 -175.242C713.643 -82.1014 701.264 8.97513 691.723 105.47C689.402 128.432 674.186 174.616 689.144 196.546C707.711 223.637 749.746 219.509 777.856 222.605C804.16 225.443 849.805 221.573 865.278 249.696C880.236 276.529 851.611 330.194 841.553 351.867C824.533 387.73 793.071 423.593 784.045 462.552C770.893 518.539 803.644 568.077 828.143 615.55" stroke="#8CC1FC" stroke-width="0.45" stroke-miterlimit="10" stroke-linecap="round" stroke-linejoin="round"/>
<path d="M721.379 -180.144C699.975 -85.9715 680.891 8.20113 669.287 104.18C658.455 192.16 662.066 210.221 750.778 229.313C778.114 235.247 820.149 236.537 835.106 265.95C849.547 294.847 825.822 338.966 812.67 362.961C794.36 395.986 759.03 425.657 746.394 461.262C727.568 513.637 758.772 557.498 783.787 602.134" stroke="#8CC1FC" stroke-width="0.45" stroke-miterlimit="10" stroke-linecap="round" stroke-linejoin="round"/>
<path d="M706.164 -180.402C689.659 -89.3256 664.903 0.202842 649.172 91.2793C643.756 122.498 628.541 166.617 648.14 195.514C663.871 218.993 698.943 224.411 723.442 232.409C812.154 261.564 831.496 313.939 767.283 392.374C750.004 413.53 721.895 430.301 708.485 453.779C680.891 502.801 710.032 539.438 736.336 583.557" stroke="#8CC1FC" stroke-width="0.45" stroke-miterlimit="10" stroke-linecap="round" stroke-linejoin="round"/>
<path d="M692.496 -176.016C679.344 -85.7134 648.656 -3.66713 628.025 84.8293C608.684 168.166 619.773 196.804 695.333 233.441C771.151 270.078 807.77 327.098 735.305 396.502C715.706 415.336 685.275 426.689 668.771 447.587C634.73 490.932 661.808 521.377 688.886 563.432" stroke="#8CC1FC" stroke-width="0.45" stroke-miterlimit="10" stroke-linecap="round" stroke-linejoin="round"/>
<path d="M677.797 -167.76C667.482 -79.5213 634.73 -12.4395 607.395 69.8647C579.285 154.749 597.853 184.678 664.645 230.861C722.669 271.11 781.982 329.678 706.938 392.374C683.986 411.466 652.782 418.432 630.346 437.267C586.506 474.162 611.521 500.737 640.92 542.792" stroke="#8CC1FC" stroke-width="0.45" stroke-miterlimit="10" stroke-linecap="round" stroke-linejoin="round"/>
<path d="M659.745 -155.375C655.103 -99.3879 647.625 -53.9787 621.32 -4.18332C608.942 19.0373 592.695 40.1939 582.122 64.4466C547.823 142.623 574.128 177.196 631.12 226.733C678.828 268.53 746.91 337.418 670.318 391.084C645.304 408.628 613.326 412.24 588.569 429.011C540.603 461.262 562.781 484.224 594.5 525.763" stroke="#8CC1FC" stroke-width="0.45" stroke-miterlimit="10" stroke-linecap="round" stroke-linejoin="round"/>
<path d="M635.762 -139.379C633.183 -84.1654 628.799 -42.3682 597.337 3.55703C583.669 23.6816 564.586 40.194 552.465 61.6086C513.267 131.787 545.244 170.488 592.695 220.541C633.699 263.37 702.296 337.16 629.573 385.666C603.784 402.952 571.806 406.048 544.729 420.497C491.862 448.877 517.393 475.71 549.628 514.411" stroke="#8CC1FC" stroke-width="0.45" stroke-miterlimit="10" stroke-linecap="round" stroke-linejoin="round"/>
<path d="M603.268 -120.286C603.268 -66.3629 602.495 -26.6298 566.391 14.9093C551.434 32.1958 530.287 43.8061 517.135 62.8987C474.584 123.53 509.914 165.585 549.113 213.059C584.443 255.63 650.203 330.452 584.959 376.377C559.428 394.18 526.677 397.792 500.115 413.014C445.701 444.233 473.553 472.356 508.367 511.315" stroke="#8CC1FC" stroke-width="0.45" stroke-miterlimit="10" stroke-linecap="round" stroke-linejoin="round"/>
<path d="M559.686 -98.0979C562.781 -48.3025 566.907 -7.79542 529.256 29.0996C511.462 46.3861 487.479 54.3843 471.49 74.2509C433.065 122.498 467.106 164.295 498.31 204.544C533.898 249.954 589.601 319.1 529.256 366.315C505.531 384.891 473.811 391.342 450.086 409.66C399.025 449.135 435.386 481.902 470.716 519.571" stroke="#8CC1FC" stroke-width="0.45" stroke-miterlimit="10" stroke-linecap="round" stroke-linejoin="round"/>
<path d="M502.694 -73.3291C508.883 -28.1779 518.94 15.4254 481.289 48.9663C461.948 66.2528 433.581 69.0908 417.076 90.2474C386.13 129.981 415.271 162.231 439.77 194.74C468.137 232.667 509.914 283.495 486.447 333.032C470.2 367.347 423.523 381.796 400.056 409.918C356.216 462.294 400.572 501.253 438.48 541.244" stroke="#8CC1FC" stroke-width="0.45" stroke-miterlimit="10" stroke-linecap="round" stroke-linejoin="round"/>
<path d="M458.08 -60.6868C466.074 -17.8576 478.71 23.9395 442.349 56.4484C423.523 73.2189 395.672 75.283 379.167 96.1815C348.479 134.883 378.136 158.361 403.666 187C438.222 225.701 461.69 272.916 438.738 324.518C421.46 363.477 382.004 386.956 359.826 422.56C322.175 482.676 362.147 526.021 400.829 572.721" stroke="#8CC1FC" stroke-width="0.45" stroke-miterlimit="10" stroke-linecap="round" stroke-linejoin="round"/>
<path d="M420.686 -60.1709C430.486 -18.3737 444.412 21.3594 408.308 53.0942C389.225 69.8647 360.857 71.6708 344.353 92.3113C312.375 132.56 346.674 152.427 373.752 179.776C414.755 221.057 422.492 269.304 399.282 323.486C381.488 365.283 344.869 394.438 323.98 434.171C290.971 497.641 325.011 542.276 362.92 593.619" stroke="#8CC1FC" stroke-width="0.45" stroke-miterlimit="10" stroke-linecap="round" stroke-linejoin="round"/>
<path d="M388.193 -68.9429C400.056 -25.0817 413.981 11.0393 375.557 43.2902C357.505 58.5126 331.974 61.0927 315.212 78.8952C275.756 121.466 318.049 145.461 348.221 174.1C402.377 225.701 389.74 290.719 353.894 352.125C335.843 383.086 310.054 409.402 293.807 441.395C260.54 505.897 288.392 550.79 325.269 606.52" stroke="#8CC1FC" stroke-width="0.45" stroke-miterlimit="10" stroke-linecap="round" stroke-linejoin="round"/>
<path d="M359.052 -84.9395C372.204 -40.5622 386.13 -6.7633 347.19 25.7456C328.106 41.484 301.802 44.3221 284.266 62.8986C240.426 109.082 294.323 138.495 326.043 168.94C386.13 227.249 364.983 296.137 324.238 362.445C305.412 392.89 280.14 419.464 263.377 451.457C231.4 512.863 254.093 556.208 286.845 611.68" stroke="#8CC1FC" stroke-width="0.45" stroke-miterlimit="10" stroke-linecap="round" stroke-linejoin="round"/>
<path d="M331.201 -105.064C346.158 -59.913 359.31 -28.1781 319.596 4.84681C299.739 21.3593 271.888 24.4554 253.578 43.8059C205.353 94.1173 272.145 131.27 305.412 164.553C371.689 230.861 345.384 303.361 296.644 374.829C276.787 403.984 251.515 429.784 234.236 460.487C202.775 516.733 220.053 557.498 248.162 611.164" stroke="#8CC1FC" stroke-width="0.45" stroke-miterlimit="10" stroke-linecap="round" stroke-linejoin="round"/>
<path d="M303.091 -127.253C319.596 -81.3274 332.232 -51.3986 292.002 -17.8577C271.114 -0.571197 242.231 3.29891 222.889 23.4235C170.281 78.121 250.483 124.046 285.297 160.425C357.505 235.247 328.622 311.359 270.082 387.213C210.253 464.874 163.576 504.865 209.222 605.487" stroke="#8CC1FC" stroke-width="0.45" stroke-miterlimit="10" stroke-linecap="round" stroke-linejoin="round"/>
<path d="M272.145 -148.409C290.455 -101.968 302.833 -73.8451 262.346 -39.2722C240.941 -20.9537 210.769 -16.5676 190.654 4.33102C134.177 63.4146 227.531 117.854 264.151 156.813C342.032 239.375 311.859 319.874 242.747 398.824C183.949 465.906 134.951 502.543 170.023 596.715" stroke="#8CC1FC" stroke-width="0.45" stroke-miterlimit="10" stroke-linecap="round" stroke-linejoin="round"/>
<path d="M237.073 -166.47C257.446 -120.286 270.34 -92.9377 229.852 -57.5907C208.19 -38.4982 177.244 -33.338 156.871 -11.4074C97.8158 51.5463 202.517 112.952 241.199 153.975C324.754 242.988 292.26 328.13 213.348 408.886C156.871 466.422 106.326 499.963 130.825 586.911" stroke="#8CC1FC" stroke-width="0.45" stroke-miterlimit="10" stroke-linecap="round" stroke-linejoin="round"/>
<path d="M195.812 -178.854C218.505 -133.445 232.689 -107.128 192.975 -70.491C171.313 -50.6245 140.367 -44.6903 119.994 -22.2437C59.9068 44.5802 174.149 108.824 214.379 150.879C303.865 244.278 265.698 333.29 179.565 414.562C126.183 465.132 76.6692 495.835 91.1107 576.075" stroke="#8CC1FC" stroke-width="0.45" stroke-miterlimit="10" stroke-linecap="round" stroke-linejoin="round"/>
<path d="M146.556 -182.724C171.829 -139.379 188.849 -113.578 150.682 -75.3932C130.051 -54.7526 99.1054 -48.3024 79.7641 -25.3398C20.9666 44.5802 141.141 107.018 182.918 148.557C279.108 244.278 228.305 334.322 140.625 415.594C90.3374 462.294 45.4656 492.739 51.6548 567.045" stroke="#8CC1FC" stroke-width="0.45" stroke-miterlimit="10" stroke-linecap="round" stroke-linejoin="round"/>
<path d="M87.2426 -175.758C114.836 -135.767 137.014 -109.966 101.426 -70.2332C82.8585 -49.3346 52.944 -42.1104 35.15 -18.8897C-19.7793 53.6103 102.458 107.018 145.266 146.235C329.138 313.681 -4.56412 397.534 12.4562 560.594" stroke="#8CC1FC" stroke-width="0.45" stroke-miterlimit="10" stroke-linecap="round" stroke-linejoin="round"/>
</g>
</svg>
