<svg width="1046" height="244" viewBox="0 0 1046 244" fill="none" xmlns="http://www.w3.org/2000/svg">
<g opacity="0.3">
<path d="M31.2714 -117.077C100.103 -137.817 158.303 -146.293 220.288 -105.716C248.397 -87.1409 272.182 -59.9095 306.057 -51.9745C351.104 -41.5148 401.196 -70.73 438.855 -91.2888C459.576 -102.65 481.019 -123.93 503.542 -131.505C520.48 -137.276 534.534 -132.046 550.751 -125.734C595.437 -108.601 632.916 -87.1409 681.206 -81.0094C782.832 -68.2052 942.478 -78.1239 994.192 -182C1042.3 -132.947 1069.15 -47.1054 1014.73 9.3412C987.525 37.6546 892.746 45.9503 915.27 100.233C923.018 118.808 941.757 131.612 950.226 149.826C960.136 170.926 956.172 191.846 953.469 214.208C943.018 296.443 972.389 357.398 1017.62 426.108C960.497 409.336 924.099 379.4 874.547 350.365C836.708 328.183 804.995 331.609 765.894 350.365C719.767 372.366 681.747 425.387 627.691 425.206C583.905 425.026 540.3 401.942 501.199 384.99C461.919 368.219 410.926 340.987 366.239 349.644C325.157 357.579 300.831 398.696 260.289 411.681C175.782 439.092 85.5078 386.253 1 381.383C2.08112 331.069 19.9197 301.132 51.993 263.802C97.5803 210.781 167.853 149.646 90.1926 91.5764C57.759 67.4108 -25.1271 40.9008 11.4509 -12.6603C20.8206 -26.1859 39.1997 -31.4157 49.2902 -43.8592C72.5343 -73.4351 52.7137 -91.1084 31.2714 -117.077Z" stroke="#F5FAFF" stroke-width="0.45" stroke-miterlimit="10" stroke-linecap="round" stroke-linejoin="round"/>
<path d="M21 302.574C68.7496 311.411 114.878 315.919 162.627 304.197C193.619 296.442 222.99 283.277 253.802 274.621C337.769 250.997 416.871 283.458 500.838 293.196C532.912 296.983 565.345 298.246 597.239 291.934C636.88 284.179 664.088 256.948 701.567 244.685C735.622 233.684 762.47 244.865 794.363 256.226C849.501 276.064 893.827 270.654 949.865 254.964" stroke="#F5FAFF" stroke-width="0.45" stroke-miterlimit="10" stroke-linecap="round" stroke-linejoin="round"/>
<path d="M37.5781 280.754C87.6701 292.115 133.258 297.886 182.449 281.115C214.882 269.934 244.433 252.982 278.669 246.67C360.113 231.341 440.477 277.328 523.002 277.508C552.012 277.508 580.482 273.54 608.231 265.425C643.367 255.326 673.999 229.718 709.676 223.766C741.209 218.537 765.895 234.767 794.725 244.145C850.042 262.179 898.692 247.752 952.028 227.193" stroke="#F5FAFF" stroke-width="0.45" stroke-miterlimit="10" stroke-linecap="round" stroke-linejoin="round"/>
<path d="M61.1816 253.161C110.733 266.867 155.6 275.884 204.07 254.424C233.26 241.439 258.667 222.503 291.281 217.995C341.553 211.142 386.239 236.209 433.629 248.292C470.026 257.489 508.046 261.998 545.344 255.686C575.256 250.817 602.824 238.734 630.573 227.012C657.961 215.47 690.936 194.009 721.748 196.174C747.154 197.977 768.236 215.65 791.12 225.208C848.6 249.194 902.295 226.11 955.631 200.862" stroke="#F5FAFF" stroke-width="0.45" stroke-miterlimit="10" stroke-linecap="round" stroke-linejoin="round"/>
<path d="M93.2559 217.454C139.023 233.324 182.809 247.571 226.955 220.7C251.1 205.913 269.299 185.714 299.39 184.091C350.023 181.206 398.133 217.815 446.783 228.996C485.884 238.013 525.525 238.374 563.364 224.307C612.015 206.093 678.324 133.957 733.281 156.68C756.345 166.238 772.381 189.321 794.004 201.404C849.141 232.242 906.981 201.765 957.253 175.255" stroke="#F5FAFF" stroke-width="0.45" stroke-miterlimit="10" stroke-linecap="round" stroke-linejoin="round"/>
<path d="M124.248 169.304C163.529 181.567 201.008 193.289 240.829 178.14C262.271 169.845 277.767 158.303 301.732 159.565C348.04 162.09 393.628 189.682 439.756 197.797C479.757 204.831 519.579 206.273 558.679 194.551C609.852 179.403 679.405 109.972 733.281 125.12C756.344 131.612 773.823 153.253 794.544 164.254C848.06 192.387 898.692 173.812 950.947 150.909" stroke="#F5FAFF" stroke-width="0.45" stroke-miterlimit="10" stroke-linecap="round" stroke-linejoin="round"/>
<path d="M124.969 132.334C160.826 140.63 196.143 148.385 232.901 143.696C254.703 140.81 272.902 136.302 295.065 139.728C378.852 152.532 454.711 191.125 542.102 174.534C571.473 168.943 598.681 156.68 625.348 143.696C650.395 131.433 680.846 107.628 709.676 106.906C737.425 106.185 762.651 127.826 787.157 137.925C839.231 159.385 885.178 148.024 936.892 129.268" stroke="#F5FAFF" stroke-width="0.45" stroke-miterlimit="10" stroke-linecap="round" stroke-linejoin="round"/>
<path d="M104.969 103.66C162.448 110.332 221.91 110.332 278.669 122.235C356.87 138.646 437.594 164.615 518.498 160.106C546.968 158.483 573.095 150.909 599.222 139.728C627.512 127.465 655.08 103.299 685.171 98.0692C713.281 93.2 740.489 106.365 766.976 113.939C821.573 129.809 866.259 125.301 921.397 109.25" stroke="#F5FAFF" stroke-width="0.45" stroke-miterlimit="10" stroke-linecap="round" stroke-linejoin="round"/>
<path d="M73.4355 80.5767C215.423 78.9536 351.825 133.236 492.731 148.385C518.678 151.09 542.643 148.926 567.148 139.909C599.222 128.187 623.367 102.217 655.08 91.5774C686.432 80.9373 718.506 87.9706 750.219 93.2005C806.797 102.578 854.547 102.939 911.306 90.6757" stroke="#F5FAFF" stroke-width="0.45" stroke-miterlimit="10" stroke-linecap="round" stroke-linejoin="round"/>
<path d="M39.3789 60.0166C84.7861 53.7047 126.229 52.262 170.195 66.6893C199.745 76.4276 227.674 90.8548 258.126 97.8881C295.965 106.544 335.607 103.298 373.806 109.791C406.78 115.201 437.412 126.743 469.486 135.399C491.649 141.35 512.01 144.596 534.533 138.284C571.832 127.825 595.076 96.6258 629.852 81.4772C663.187 66.8696 700.125 67.4106 735.622 70.1157C796.165 74.8046 852.563 79.6738 913.467 71.9191" stroke="#F5FAFF" stroke-width="0.45" stroke-miterlimit="10" stroke-linecap="round" stroke-linejoin="round"/>
<path d="M12.1719 39.4572C63.1648 25.7513 106.59 25.571 155.601 46.1298C184.07 58.2126 210.378 75.7056 240.649 84.0013C283.173 95.7234 326.058 83.6406 369.303 89.9525C399.574 94.461 426.062 106.183 453.991 117.725C526.786 147.301 555.076 92.6576 617.24 63.2621C712.92 17.9967 833.105 53.7041 934.73 52.2614" stroke="#F5FAFF" stroke-width="0.45" stroke-miterlimit="10" stroke-linecap="round" stroke-linejoin="round"/>
<path d="M1 15.8329C50.3713 -3.82421 90.7332 -6.34897 139.023 17.8166C172.899 34.7686 203.53 61.0983 240.108 72.2794C281.371 84.9033 316.328 66.8692 357.59 66.6889C392.367 66.5086 419.575 78.5914 450.927 91.7562C473.631 101.314 491.83 109.069 516.515 100.773C556.517 87.428 585.707 47.7532 624.628 30.2601C735.623 -19.5138 866.799 16.3739 981.579 30.9815" stroke="#F5FAFF" stroke-width="0.45" stroke-miterlimit="10" stroke-linecap="round" stroke-linejoin="round"/>
<path d="M6.94531 -6.34763C61.7222 -27.0868 104.066 -27.9885 156.32 0.865985C188.214 18.5393 217.224 43.9674 252.901 54.0664C296.326 66.3296 335.787 43.6067 379.212 42.1639C406.961 41.2622 431.466 47.3938 457.413 56.0501C527.326 79.1337 563.904 32.6059 629.312 12.4078C751.118 -25.4637 886.078 6.63688 1010.05 14.0308" stroke="#F5FAFF" stroke-width="0.45" stroke-miterlimit="10" stroke-linecap="round" stroke-linejoin="round"/>
<path d="M21.3613 -22.5782C77.7599 -42.596 121.545 -44.3994 173.98 -13.0202C204.792 5.37454 232.18 32.0649 267.317 42.3443C310.922 55.3288 350.023 30.9829 392.727 24.4906C417.593 20.7035 440.296 21.9658 464.802 26.294C528.949 37.4751 572.914 6.63692 635.439 -5.62623C764.994 -31.0542 899.233 -6.16725 1030.05 -12.1185" stroke="#F5FAFF" stroke-width="0.45" stroke-miterlimit="10" stroke-linecap="round" stroke-linejoin="round"/>
<path d="M39.0195 -35.9243C96.8596 -55.2207 142.087 -57.9258 194.701 -23.8415C224.252 -4.72541 250.019 23.2274 284.434 33.8674C346.058 52.9835 409.304 -0.577583 473.09 -0.216902C530.93 0.143779 582.104 -15.3655 639.764 -22.0381C773.462 -37.7277 909.143 -19.874 1041.94 -44.761" stroke="#F5FAFF" stroke-width="0.45" stroke-miterlimit="10" stroke-linecap="round" stroke-linejoin="round"/>
<path d="M54.1543 -48.9079C109.472 -66.2206 157.041 -72.3521 207.674 -39.3498C237.405 -19.8731 262.27 11.3258 296.506 23.4086C361.554 46.4922 419.574 -14.6432 481.558 -26.185C535.074 -36.2841 596.337 -34.661 650.394 -37.7268C781.029 -44.9404 920.314 -34.12 1044.64 -80.8281" stroke="#F5FAFF" stroke-width="0.45" stroke-miterlimit="10" stroke-linecap="round" stroke-linejoin="round"/>
<path d="M61.543 -64.9584C118.482 -82.0908 168.754 -89.6651 220.468 -54.8594C249.658 -35.2023 273.803 -3.10167 307.859 8.80079C376.69 32.7861 430.206 -34.3006 489.848 -54.8594C504.984 -60.0893 517.957 -59.0072 533.814 -57.5645C574.716 -53.9577 614.177 -52.1543 655.44 -52.1543C780.129 -52.515 929.144 -48.0064 1037.98 -117.438" stroke="#F5FAFF" stroke-width="0.45" stroke-miterlimit="10" stroke-linecap="round" stroke-linejoin="round"/>
<path d="M980.857 -156.752C1021.04 -109.503 1029.69 -36.2846 977.614 7.35782C943.739 35.8516 857.609 48.6558 879.592 109.25C887.521 131.252 905.9 148.023 912.026 171.107C917.251 191.125 913.107 212.044 911.125 232.423C903.377 305.461 938.874 357.399 981.218 415.107" stroke="#F5FAFF" stroke-width="0.45" stroke-miterlimit="10" stroke-linecap="round" stroke-linejoin="round"/>
<path d="M959.596 -135.291C992.029 -89.3042 986.804 -29.7919 939.775 5.19414C901.575 33.6879 823.014 49.1972 847.339 113.218C854.547 131.973 868.421 147.663 874.367 167.14C881.394 190.404 878.151 212.225 875.989 235.849C870.043 304.739 908.242 348.562 950.406 400.681" stroke="#F5FAFF" stroke-width="0.45" stroke-miterlimit="10" stroke-linecap="round" stroke-linejoin="round"/>
<path d="M931.847 -117.258C963.2 -73.9761 935.091 -21.4971 896.711 4.47196C855.268 32.4247 794.184 49.9177 817.969 113.398C826.798 137.022 844.817 154.876 849.141 181.025C852.024 199.42 848.24 218.175 846.438 236.57C840.672 300.05 884.999 339.905 924.82 385.171" stroke="#F5FAFF" stroke-width="0.45" stroke-miterlimit="10" stroke-linecap="round" stroke-linejoin="round"/>
<path d="M899.052 -102.83C917.071 -66.221 895.809 -25.1034 865.177 -3.64285C835.987 16.5553 801.03 21.2441 786.075 60.0173C778.867 78.953 783.552 92.8393 791.661 110.693C801.571 132.694 818.328 148.564 823.373 173.091C828.239 195.994 821.572 217.996 820.671 241.079C818.328 295.181 868.6 333.233 902.656 369.481" stroke="#F5FAFF" stroke-width="0.45" stroke-miterlimit="10" stroke-linecap="round" stroke-linejoin="round"/>
<path d="M862.655 -91.8301C884.278 5.19306 707.514 11.8657 768.057 106.003C781.391 126.742 799.229 142.793 804.275 168.221C808.599 190.042 801.392 210.781 799.77 232.242C795.806 285.262 848.781 320.248 882.296 354.873" stroke="#F5FAFF" stroke-width="0.45" stroke-miterlimit="10" stroke-linecap="round" stroke-linejoin="round"/>
<path d="M823.735 -84.0742C820.852 -46.5634 806.798 -25.8243 778.148 -3.6424C739.588 26.2941 707.154 56.2306 745.534 100.594C759.228 116.284 776.707 129.809 784.094 150.188C793.644 176.698 781.932 201.044 780.671 227.374C778.328 277.508 830.402 310.15 862.476 342.972" stroke="#F5FAFF" stroke-width="0.45" stroke-miterlimit="10" stroke-linecap="round" stroke-linejoin="round"/>
<path d="M783.554 -79.3867C771.301 -47.4665 764.814 -27.088 739.588 -3.64375C703.19 29.8996 681.748 59.4754 724.993 95.7238C740.489 108.889 759.949 120.07 768.238 139.727C779.77 166.598 765.895 192.206 763.733 219.077C759.589 270.113 809.32 300.951 841.934 335.396" stroke="#F5FAFF" stroke-width="0.45" stroke-miterlimit="10" stroke-linecap="round" stroke-linejoin="round"/>
<path d="M743.913 -77.7637C727.696 -53.5981 724.452 -25.8256 704.091 -3.82412C667.693 35.4901 656.522 62.0001 705.713 92.4776C727.155 105.642 752.381 115.02 758.328 142.793C763.553 167.319 748.778 193.108 746.435 216.912C741.39 265.965 789.32 299.508 819.411 333.593" stroke="#F5FAFF" stroke-width="0.45" stroke-miterlimit="10" stroke-linecap="round" stroke-linejoin="round"/>
<path d="M705.532 -79.0256C685.351 -56.1224 680.306 -22.3988 665.17 3.75059C639.223 48.8357 634.358 72.0996 686.612 91.7567C704.09 98.249 728.956 104.381 739.407 121.874C754.903 147.662 736.884 181.206 730.578 206.994C716.703 264.523 757.966 294.459 792.923 338.462" stroke="#F5FAFF" stroke-width="0.45" stroke-miterlimit="10" stroke-linecap="round" stroke-linejoin="round"/>
<path d="M670.216 -82.8125C644.269 -56.8435 641.926 -20.054 629.673 12.7679C623.187 30.4413 604.087 51.7215 615.799 71.5589C625.709 88.3306 651.116 91.5767 667.873 95.1835C685.171 98.7903 713.28 101.135 724.812 117.546C742.651 142.613 719.767 181.747 712.379 206.814C693.46 270.114 724.992 298.427 761.57 352.349" stroke="#F5FAFF" stroke-width="0.45" stroke-miterlimit="10" stroke-linecap="round" stroke-linejoin="round"/>
<path d="M639.043 -89.3047C609.492 -55.4007 607.51 -25.2838 598.14 16.5551C593.095 39.0977 574.355 68.6735 592.374 89.593C604.086 103.119 633.637 101.856 648.953 102.938C669.134 104.381 698.324 102.397 710.757 121.513C726.794 146.04 699.946 188.6 691.117 212.405C684.63 230.078 675.621 249.735 675.801 269.212C676.161 305.641 707.153 345.857 723.731 375.432" stroke="#F5FAFF" stroke-width="0.45" stroke-miterlimit="10" stroke-linecap="round" stroke-linejoin="round"/>
<path d="M613.457 -98.1426C573.816 -53.0575 573.275 -14.8253 564.626 41.4409C562.103 57.4912 549.13 86.526 559.761 102.216C573.996 123.315 608.592 117.905 629.674 117.004C647.692 116.282 684.631 109.069 696.163 129.086C706.253 146.579 678.144 197.616 672.919 210.239C661.567 237.291 644.269 266.686 642.467 296.623C640.305 335.396 663.549 375.792 678.144 409.876" stroke="#F5FAFF" stroke-width="0.45" stroke-miterlimit="10" stroke-linecap="round" stroke-linejoin="round"/>
<path d="M580.483 -113.109C549.13 -57.2039 547.148 -7.24957 540.661 54.7875C539.04 70.4771 526.787 102.037 537.598 117.005C551.653 136.482 585.168 130.711 604.988 129.809C622.286 129.088 658.504 122.235 669.856 141.171C680.126 158.123 654.72 206.814 649.675 219.438C638.503 247.03 620.664 276.606 618.142 306.723C614.718 347.3 638.323 387.155 654.54 422.321" stroke="#F5FAFF" stroke-width="0.45" stroke-miterlimit="10" stroke-linecap="round" stroke-linejoin="round"/>
<path d="M555.797 -123.93C531.292 -61.7123 526.426 -3.28197 520.66 62.3619C519.219 78.0515 507.867 110.693 518.678 125.661C532.192 144.417 564.086 139.908 583.546 139.908C601.024 139.908 635.44 134.859 646.611 153.795C657.062 171.288 634.178 215.11 628.593 228.636C617.241 255.326 597.6 283.459 593.456 312.674C587.69 353.251 610.934 390.942 628.052 425.748" stroke="#F5FAFF" stroke-width="0.45" stroke-miterlimit="10" stroke-linecap="round" stroke-linejoin="round"/>
<path d="M537.598 -131.145C518.498 -66.0416 509.849 -2.38149 503.182 65.0658C501.561 81.1161 490.93 113.397 501.38 128.726C514.354 147.662 543.724 144.776 563.365 146.94C581.744 148.924 613.637 146.219 624.448 165.876C634.899 184.632 614.898 222.142 607.871 237.291C595.979 262.358 573.996 287.426 567.689 314.657C558.5 353.791 581.384 388.416 598.501 421.599" stroke="#F5FAFF" stroke-width="0.45" stroke-miterlimit="10" stroke-linecap="round" stroke-linejoin="round"/>
<path d="M523.903 -134.57C508.948 -68.7461 495.614 -2.92184 487.506 64.1648C479.938 125.661 482.46 138.285 544.445 151.63C563.545 155.778 592.915 156.679 603.366 177.238C613.456 197.436 596.879 228.275 587.69 245.046C574.896 268.13 550.211 288.869 541.382 313.756C528.228 350.365 550.031 381.023 567.509 412.222" stroke="#F5FAFF" stroke-width="0.45" stroke-miterlimit="10" stroke-linecap="round" stroke-linejoin="round"/>
<path d="M513.273 -134.75C501.741 -71.0898 484.443 -8.51173 473.451 55.1484C469.667 76.9696 459.036 107.808 472.731 128.006C483.722 144.417 508.228 148.204 525.345 153.795C587.33 174.173 600.844 210.782 555.977 265.606C543.905 280.394 524.264 292.116 514.894 308.527C495.614 342.791 515.976 368.4 534.355 399.238" stroke="#F5FAFF" stroke-width="0.45" stroke-miterlimit="10" stroke-linecap="round" stroke-linejoin="round"/>
<path d="M503.721 -131.686C494.532 -68.5664 473.089 -11.2182 458.674 50.6386C445.16 108.889 452.908 128.906 505.703 154.515C558.678 180.123 584.265 219.978 533.632 268.49C519.938 281.655 498.676 289.59 487.144 304.197C463.359 334.494 482.279 355.775 501.199 385.17" stroke="#F5FAFF" stroke-width="0.45" stroke-miterlimit="10" stroke-linecap="round" stroke-linejoin="round"/>
<path d="M493.452 -125.914C486.245 -64.2376 463.361 -17.3492 444.261 40.1794C424.621 99.5114 437.594 120.431 484.263 152.712C524.805 180.845 566.248 221.782 513.814 265.605C497.777 278.95 475.974 283.819 460.298 296.984C429.666 322.773 447.144 341.348 467.686 370.743" stroke="#F5FAFF" stroke-width="0.45" stroke-miterlimit="10" stroke-linecap="round" stroke-linejoin="round"/>
<path d="M480.838 -117.258C477.594 -78.1239 472.369 -46.384 453.99 -11.5783C445.341 4.65229 433.989 19.4402 426.601 36.3922C402.636 91.0354 421.015 115.201 460.837 149.826C494.171 179.041 541.741 227.192 488.225 264.703C470.747 276.966 448.404 279.491 431.106 291.213C397.591 313.756 413.087 329.806 435.25 358.841" stroke="#F5FAFF" stroke-width="0.45" stroke-miterlimit="10" stroke-linecap="round" stroke-linejoin="round"/>
<path d="M464.08 -106.076C462.278 -67.4833 459.215 -38.2682 437.232 -6.1676C427.682 7.89896 414.348 19.4407 405.88 34.409C378.491 83.4616 400.834 110.513 433.989 145.499C462.638 175.435 510.568 227.013 459.756 260.917C441.737 272.999 419.394 275.163 400.474 285.262C363.536 305.1 381.374 323.855 403.897 350.906" stroke="#F5FAFF" stroke-width="0.45" stroke-miterlimit="10" stroke-linecap="round" stroke-linejoin="round"/>
<path d="M441.378 -92.7305C441.378 -55.0393 440.837 -27.2669 415.611 1.7679C405.16 13.8507 390.385 21.966 381.196 35.3112C351.465 77.6912 376.15 107.087 403.539 140.269C428.224 170.025 474.172 222.324 428.585 254.425C410.746 266.868 387.862 269.393 369.303 280.033C331.284 301.854 350.744 321.511 375.069 348.743" stroke="#F5FAFF" stroke-width="0.45" stroke-miterlimit="10" stroke-linecap="round" stroke-linejoin="round"/>
<path d="M410.926 -77.2227C413.089 -42.417 415.972 -14.1035 389.664 11.6852C377.231 23.768 360.474 29.3585 349.302 43.2447C322.455 76.9684 346.239 106.184 368.042 134.317C392.908 166.057 431.828 214.388 389.664 247.39C373.087 260.375 350.924 264.883 334.347 277.687C298.67 305.279 324.076 328.183 348.762 354.512" stroke="#F5FAFF" stroke-width="0.45" stroke-miterlimit="10" stroke-linecap="round" stroke-linejoin="round"/>
<path d="M371.105 -59.9102C375.429 -28.3506 382.457 2.12695 356.149 25.5712C342.635 37.654 322.815 39.6378 311.283 54.4257C289.66 82.1981 310.021 104.741 327.139 127.464C346.96 153.974 376.15 189.501 359.753 224.126C348.401 248.111 315.787 258.21 299.39 277.867C268.758 314.477 299.751 341.708 326.238 369.661" stroke="#F5FAFF" stroke-width="0.45" stroke-miterlimit="10" stroke-linecap="round" stroke-linejoin="round"/>
<path d="M339.931 -51.0723C345.517 -21.1358 354.346 8.07937 328.94 30.8023C315.786 42.5244 296.326 43.9671 284.794 58.5747C263.352 85.6258 284.073 102.037 301.912 122.055C326.057 149.106 342.454 182.108 326.417 218.176C314.345 245.407 286.776 261.818 271.28 286.705C244.973 328.725 272.902 359.022 299.93 391.663" stroke="#F5FAFF" stroke-width="0.45" stroke-miterlimit="10" stroke-linecap="round" stroke-linejoin="round"/>
<path d="M313.804 -50.7129C320.651 -21.4977 330.381 6.27468 305.155 28.4566C291.821 40.1787 272.001 41.4411 260.469 55.8683C238.126 84.0014 262.091 97.8876 281.01 117.004C309.66 145.858 315.066 179.582 298.849 217.453C286.416 246.668 260.829 267.047 246.234 294.819C223.17 339.183 246.955 370.382 273.442 406.27" stroke="#F5FAFF" stroke-width="0.45" stroke-miterlimit="10" stroke-linecap="round" stroke-linejoin="round"/>
<path d="M291.102 -56.8438C299.39 -26.1859 309.12 -0.938223 282.272 21.6043C269.659 32.2444 251.821 34.0478 240.109 46.4913C212.54 76.2475 242.091 93.0191 263.173 113.037C301.012 149.105 292.183 194.551 267.137 237.472C254.524 259.113 236.505 277.507 225.153 299.87C201.909 344.955 221.369 376.334 247.136 415.287" stroke="#F5FAFF" stroke-width="0.45" stroke-miterlimit="10" stroke-linecap="round" stroke-linejoin="round"/>
<path d="M270.74 -68.0254C279.93 -37.0068 289.66 -13.3822 262.452 9.34064C249.118 20.3414 230.739 22.3251 218.486 35.3096C187.854 67.5906 225.513 88.1494 247.676 109.43C289.66 150.186 274.884 198.337 246.415 244.685C233.261 265.965 215.603 284.54 203.891 306.902C181.547 349.823 197.404 380.12 220.288 418.894" stroke="#F5FAFF" stroke-width="0.45" stroke-miterlimit="10" stroke-linecap="round" stroke-linejoin="round"/>
<path d="M251.279 -82.0918C261.73 -50.5322 270.92 -28.3504 243.171 -5.26679C229.296 6.275 209.836 8.43909 197.043 21.9646C163.348 57.131 210.016 83.1 233.26 106.364C279.569 152.711 261.189 203.387 227.134 253.341C213.26 273.72 195.601 291.754 183.529 313.214C161.546 352.529 173.619 381.022 193.259 418.533" stroke="#F5FAFF" stroke-width="0.45" stroke-miterlimit="10" stroke-linecap="round" stroke-linejoin="round"/>
<path d="M231.64 -97.6016C243.172 -65.501 252.001 -44.5815 223.892 -21.1372C209.296 -9.05442 189.115 -6.34931 175.601 7.71724C138.843 45.9494 194.881 78.05 219.207 103.478C269.659 155.777 249.478 208.977 208.576 261.997C166.772 316.28 134.158 344.232 166.051 414.565" stroke="#F5FAFF" stroke-width="0.45" stroke-miterlimit="10" stroke-linecap="round" stroke-linejoin="round"/>
<path d="M210.016 -112.389C222.81 -79.9274 231.459 -60.2703 203.169 -36.1047C188.214 -23.3005 167.132 -20.2347 153.077 -5.62715C113.616 35.6708 178.844 73.7226 204.43 100.954C258.847 158.663 237.765 214.929 189.475 270.113C148.392 317.002 114.157 342.61 138.662 408.434" stroke="#F5FAFF" stroke-width="0.45" stroke-miterlimit="10" stroke-linecap="round" stroke-linejoin="round"/>
<path d="M185.512 -125.012C199.747 -92.7308 208.756 -73.6147 180.467 -48.9081C165.331 -35.5629 143.709 -31.9561 129.474 -16.6271C88.211 27.3759 161.367 70.2969 188.395 98.9711C246.776 161.189 224.072 220.701 168.935 277.147C129.474 317.363 94.1572 340.808 111.275 401.582" stroke="#F5FAFF" stroke-width="0.45" stroke-miterlimit="10" stroke-linecap="round" stroke-linejoin="round"/>
<path d="M156.683 -133.668C172.539 -101.928 182.449 -83.5333 154.701 -57.925C139.565 -44.0388 117.942 -39.891 103.708 -24.2014C61.724 22.5068 141.547 67.4116 169.656 96.8071C232.181 162.09 205.513 224.308 145.331 281.115C108.032 316.462 73.4362 337.922 83.5266 394.008" stroke="#F5FAFF" stroke-width="0.45" stroke-miterlimit="10" stroke-linecap="round" stroke-linejoin="round"/>
<path d="M122.266 -136.373C139.924 -106.076 151.817 -88.0418 125.149 -61.3514C110.734 -46.9242 89.1116 -42.4157 75.5976 -26.3654C34.5149 22.5068 118.482 66.1492 147.672 95.184C214.882 162.09 179.385 225.029 118.122 281.836C82.9852 314.478 51.6327 335.758 55.9572 387.696" stroke="#F5FAFF" stroke-width="0.45" stroke-miterlimit="10" stroke-linecap="round" stroke-linejoin="round"/>
<path d="M80.8232 -131.504C100.103 -103.551 115.599 -85.5171 90.7335 -57.7447C77.76 -43.1371 56.8583 -38.0876 44.4254 -21.8569C6.04549 28.8187 91.4542 66.1492 121.365 93.5609C249.839 210.602 16.6765 269.212 28.5689 383.188" stroke="#F5FAFF" stroke-width="0.45" stroke-miterlimit="10" stroke-linecap="round" stroke-linejoin="round"/>
</g>
</svg>
